<mxfile host="app.diagrams.net" agent="Mozilla/5.0 (Macintosh; Intel Mac OS X 10_15_7) AppleWebKit/537.36 (KHTML, like Gecko) Chrome/138.0.0.0 Safari/537.36" version="27.1.4">
  <diagram name="Page-1" id="wVFOSHJ2MyzRC7Csv9pp">
    <mxGraphModel dx="1973" dy="1167" grid="1" gridSize="10" guides="1" tooltips="1" connect="1" arrows="1" fold="1" page="1" pageScale="1" pageWidth="850" pageHeight="1100" math="0" shadow="0">
      <root>
        <mxCell id="0" />
        <mxCell id="1" parent="0" />
        <mxCell id="5sIYrV1YxbNvp70j_MaP-1" value="" style="rounded=0;whiteSpace=wrap;html=1;" vertex="1" parent="1">
          <mxGeometry x="80" width="770" height="30" as="geometry" />
        </mxCell>
        <mxCell id="5sIYrV1YxbNvp70j_MaP-2" value="Title Page Name" style="rounded=0;whiteSpace=wrap;html=1;align=left;" vertex="1" parent="1">
          <mxGeometry x="80" y="30" width="770" height="20" as="geometry" />
        </mxCell>
        <mxCell id="5sIYrV1YxbNvp70j_MaP-3" value="ã†”" style="rounded=0;whiteSpace=wrap;html=1;align=right;spacing=14;fontSize=22;spacingBottom=3;" vertex="1" parent="1">
          <mxGeometry x="440" y="50" width="410" height="30" as="geometry" />
        </mxCell>
        <mxCell id="5sIYrV1YxbNvp70j_MaP-4" value="Logo" style="whiteSpace=wrap;html=1;aspect=fixed;" vertex="1" parent="1">
          <mxGeometry width="80" height="80" as="geometry" />
        </mxCell>
        <mxCell id="5sIYrV1YxbNvp70j_MaP-5" value="Home" style="rounded=0;whiteSpace=wrap;html=1;" vertex="1" parent="1">
          <mxGeometry x="80" y="50" width="120" height="30" as="geometry" />
        </mxCell>
        <mxCell id="5sIYrV1YxbNvp70j_MaP-7" value="Contact" style="rounded=0;whiteSpace=wrap;html=1;" vertex="1" parent="1">
          <mxGeometry x="320" y="50" width="120" height="30" as="geometry" />
        </mxCell>
        <mxCell id="5sIYrV1YxbNvp70j_MaP-8" value="Schedule &amp;amp; Events" style="rounded=0;whiteSpace=wrap;html=1;" vertex="1" parent="1">
          <mxGeometry x="200" y="50" width="120" height="30" as="geometry" />
        </mxCell>
        <mxCell id="5sIYrV1YxbNvp70j_MaP-10" value="" style="rounded=0;whiteSpace=wrap;html=1;" vertex="1" parent="1">
          <mxGeometry y="80" width="850" height="170" as="geometry" />
        </mxCell>
        <mxCell id="5sIYrV1YxbNvp70j_MaP-17" value="" style="endArrow=none;html=1;rounded=0;entryX=0;entryY=0;entryDx=0;entryDy=0;exitX=1;exitY=1;exitDx=0;exitDy=0;" edge="1" parent="1" source="5sIYrV1YxbNvp70j_MaP-10" target="5sIYrV1YxbNvp70j_MaP-10">
          <mxGeometry width="50" height="50" relative="1" as="geometry">
            <mxPoint x="730" y="280" as="sourcePoint" />
            <mxPoint x="530" y="340" as="targetPoint" />
          </mxGeometry>
        </mxCell>
        <mxCell id="5sIYrV1YxbNvp70j_MaP-18" value="" style="endArrow=none;html=1;rounded=0;entryX=0;entryY=1;entryDx=0;entryDy=0;exitX=1;exitY=0;exitDx=0;exitDy=0;" edge="1" parent="1" source="5sIYrV1YxbNvp70j_MaP-10" target="5sIYrV1YxbNvp70j_MaP-10">
          <mxGeometry width="50" height="50" relative="1" as="geometry">
            <mxPoint x="910" y="310" as="sourcePoint" />
            <mxPoint x="90" y="190" as="targetPoint" />
          </mxGeometry>
        </mxCell>
        <mxCell id="5sIYrV1YxbNvp70j_MaP-21" value="Footer" style="rounded=0;whiteSpace=wrap;html=1;" vertex="1" parent="1">
          <mxGeometry y="1010" width="850" height="190" as="geometry" />
        </mxCell>
        <mxCell id="5sIYrV1YxbNvp70j_MaP-25" value="Head Coach" style="rounded=0;whiteSpace=wrap;html=1;" vertex="1" parent="1">
          <mxGeometry x="550" y="410" width="300" height="340" as="geometry" />
        </mxCell>
        <mxCell id="5sIYrV1YxbNvp70j_MaP-27" value="upcoming events" style="rounded=0;whiteSpace=wrap;html=1;" vertex="1" parent="1">
          <mxGeometry y="410" width="540" height="340" as="geometry" />
        </mxCell>
        <mxCell id="5sIYrV1YxbNvp70j_MaP-28" value="weather" style="rounded=0;whiteSpace=wrap;html=1;" vertex="1" parent="1">
          <mxGeometry x="620" y="260" width="230" height="140" as="geometry" />
        </mxCell>
        <mxCell id="5sIYrV1YxbNvp70j_MaP-30" value="" style="rounded=0;whiteSpace=wrap;html=1;" vertex="1" parent="1">
          <mxGeometry x="600" y="760" width="250" height="240" as="geometry" />
        </mxCell>
        <mxCell id="5sIYrV1YxbNvp70j_MaP-31" value="" style="rounded=0;whiteSpace=wrap;html=1;" vertex="1" parent="1">
          <mxGeometry y="760" width="300" height="240" as="geometry" />
        </mxCell>
        <mxCell id="5sIYrV1YxbNvp70j_MaP-32" value="wrestler spotlights" style="rounded=0;whiteSpace=wrap;html=1;" vertex="1" parent="1">
          <mxGeometry x="320" y="760" width="260" height="240" as="geometry" />
        </mxCell>
        <mxCell id="5sIYrV1YxbNvp70j_MaP-33" value="join newsletter" style="rounded=0;whiteSpace=wrap;html=1;" vertex="1" parent="1">
          <mxGeometry y="260" width="610" height="140" as="geometry" />
        </mxCell>
      </root>
    </mxGraphModel>
  </diagram>
</mxfile>
